<svg width="63" height="60" viewBox="0 0 63 60" fill="none" xmlns="http://www.w3.org/2000/svg">
<path d="M56.9411 12.0964H51.8097V5.49794C51.8097 2.46635 49.3433 0 46.3117 0H5.49806C2.46647 0 0 2.46647 0 5.49794V42.4057C0 45.4373 2.46647 47.9036 5.49806 47.9036H10.6294V54.5019C10.6294 57.5335 13.0959 60 16.1275 60H56.9411C59.9727 60.0001 62.4392 57.5337 62.4392 54.5021V17.5944C62.4392 14.5628 59.9727 12.0964 56.9411 12.0964ZM56.9411 14.5354C58.6278 14.5354 60.0001 15.9076 60.0001 17.5943V50.2586L44.4573 32.6879C44.2258 32.4262 43.8933 32.2763 43.5439 32.2763C43.1945 32.2763 42.8619 32.4262 42.6305 32.6879L34.2939 42.1122L28.3702 35.719C28.1393 35.4699 27.8152 35.3282 27.4757 35.3282C27.1362 35.3282 26.812 35.4698 26.5812 35.7189L13.0684 50.3024V17.5944C13.0684 15.9077 14.4408 14.5355 16.1275 14.5355L56.9411 14.5354ZM32.6698 43.948L26.5887 50.8225H15.9116L27.4757 38.3423L32.6698 43.948ZM10.6294 17.5944V45.4647H5.49806C3.81135 45.4647 2.43903 44.0924 2.43903 42.4057V5.49794C2.43903 3.81123 3.81135 2.43903 5.49806 2.43903H46.3117C47.9984 2.43903 49.3707 3.81123 49.3707 5.49794V12.0964H16.1275C13.0959 12.0964 10.6294 14.5628 10.6294 17.5944ZM56.9411 57.5611H16.1275C14.4408 57.5611 13.0684 56.1889 13.0684 54.5021V53.2606C13.0853 53.2613 13.1021 53.2617 13.1191 53.2617H51.6465C52.3199 53.2617 52.866 52.7157 52.866 52.0422C52.866 51.3686 52.3199 50.8227 51.6465 50.8227H29.8451L43.5439 35.3365L57.2427 50.8227H50.5419C49.8685 50.8227 49.3224 51.3686 49.3224 52.0422C49.3224 52.7157 49.8685 53.2617 50.5419 53.2617H60.0001V54.5021C60.0001 56.1889 58.6278 57.5611 56.9411 57.5611Z" fill="#1A3D8A"/>
<path d="M31.9411 31.6358C28.3752 31.6358 25.4741 28.7347 25.4741 25.1687C25.4741 21.6028 28.3752 18.7017 31.9411 18.7017C35.5071 18.7017 38.4082 21.6028 38.4082 25.1687C38.4082 28.7347 35.5071 31.6358 31.9411 31.6358ZM31.9411 21.1407C29.72 21.1407 27.9131 22.9476 27.9131 25.1687C27.9131 27.3898 29.72 29.1968 31.9411 29.1968C34.1622 29.1968 35.9692 27.3898 35.9692 25.1687C35.9692 22.9476 34.1622 21.1407 31.9411 21.1407Z" fill="#00BF96"/>
</svg>
