<svg width="46" height="60" viewBox="0 0 46 60" fill="none" xmlns="http://www.w3.org/2000/svg">
<path d="M38.7752 21.3011H36.1363V13.2446C36.1363 5.94151 30.1948 0 22.8917 0C15.5886 0 9.64709 5.94151 9.64709 13.2446V21.301H7.00827C3.1439 21.301 0 24.4444 0 28.3082V52.9917C0 56.8562 3.14402 60 7.00827 60H38.7753C42.6396 60 45.7835 56.8561 45.7835 52.9917V28.3082C45.7834 24.4444 42.6394 21.3011 38.7752 21.3011ZM12 13.2446C12 7.23889 16.886 2.35289 22.8917 2.35289C28.8974 2.35289 33.7834 7.23889 33.7834 13.2446V21.301H30.4658V13.2446C30.4658 9.0676 27.068 5.66929 22.8917 5.66929C18.7154 5.66929 15.3177 9.06748 15.3177 13.2446V21.301H12V13.2446ZM28.1129 13.2446V21.301H17.6706V13.2446C17.6706 10.365 20.0128 8.02229 22.8917 8.02229C25.7707 8.02229 28.1129 10.365 28.1129 13.2446ZM43.4305 52.9916C43.4305 55.5586 41.3421 57.6469 38.7753 57.6469H7.00827C4.44128 57.6469 2.353 55.5585 2.353 52.9916V28.3082C2.353 25.7421 4.4414 23.654 7.00827 23.654H10.8235H16.4941H29.2894H34.96H38.7753C41.3423 23.654 43.4305 25.7419 43.4305 28.3082V52.9916Z" fill="#1A3D8A"/>
<path d="M19.8986 41.2476L19.1101 48.3386C19.0711 48.6914 19.1845 49.0454 19.4213 49.3104C19.6582 49.5752 19.9975 49.7266 20.3527 49.7266H25.3528C25.708 49.7266 26.0473 49.5752 26.2842 49.3104C26.521 49.0455 26.6346 48.6915 26.5954 48.3386L25.8069 41.2476C27.0874 40.3162 27.8527 38.8428 27.8527 37.2266C27.8527 34.4691 25.6103 32.2266 22.8527 32.2266C20.095 32.2266 17.8527 34.4691 17.8527 37.2266C17.8527 38.8428 18.6181 40.3162 19.8986 41.2476ZM22.8527 34.7266C24.2308 34.7266 25.3526 35.8485 25.3526 37.2266C25.3526 38.1848 24.8082 39.043 23.9318 39.4678C23.4544 39.6997 23.175 40.2051 23.2336 40.7312L23.9562 47.2265H21.7493L22.472 40.7312C22.5305 40.205 22.2511 39.6997 21.7737 39.4678C20.8973 39.043 20.3529 38.1848 20.3529 37.2266C20.3527 35.8485 21.4746 34.7266 22.8527 34.7266Z" fill="#00BF96"/>
</svg>
