<svg width="20" height="28" viewBox="0 0 20 28" fill="none" xmlns="http://www.w3.org/2000/svg">
<path d="M4.86445 17.6415C4.55391 17.6244 3.72046 17.639 3.62664 17.6408C3.32955 17.6463 3.091 17.8887 3.091 18.1861V23.2686C3.091 23.57 3.33537 23.814 3.63646 23.814C3.93755 23.814 4.18191 23.57 4.18191 23.2686V21.2727H4.98409C5.68481 21.2727 6.72736 20.8092 6.72736 19.5313C6.72736 18.8642 6.48517 17.7317 4.86445 17.6415ZM4.98409 20.1821H4.18191V18.7249C4.42882 18.7227 4.68154 18.7238 4.80409 18.7307C5.35645 18.7613 5.63645 18.8936 5.63645 19.5316C5.63645 20.0846 5.22409 20.1766 4.98409 20.1821Z" fill="#1A3D8A"/>
<path d="M16.5455 17.6333H14.3637C14.0626 17.6333 13.8182 17.8773 13.8182 18.1787V23.2686C13.8182 23.57 14.0626 23.814 14.3637 23.814C14.6648 23.814 14.9091 23.57 14.9091 23.2686V21.269H16.3637C16.6648 21.269 16.9091 21.025 16.9091 20.7236C16.9091 20.4222 16.6648 20.1783 16.3637 20.1783H14.9091V18.724H16.5455C16.8466 18.724 17.0909 18.4801 17.0909 18.1787C17.0909 17.8773 16.8466 17.6333 16.5455 17.6333Z" fill="#1A3D8A"/>
<path d="M8.72728 17.6333C8.42619 17.6333 8.18182 17.8773 8.18182 18.1787V23.2588C8.18182 23.5406 8.39673 23.7762 8.67746 23.802C8.69637 23.8038 8.81855 23.814 9.00837 23.814C9.60001 23.814 10.8506 23.7136 11.6996 22.9385C12.2607 22.4266 12.5451 21.73 12.5451 20.8683C12.5455 18.1943 10.4691 17.6333 8.72728 17.6333ZM10.9673 22.1303C10.4898 22.568 9.75746 22.6876 9.27273 22.7153V18.7411C10.4236 18.8225 11.4546 19.2337 11.4546 20.868C11.4546 21.4166 11.2953 21.8296 10.9673 22.1303Z" fill="#1A3D8A"/>
<path d="M19.858 6.616L13.8711 0.155917C13.7787 0.0562841 13.6528 0 13.5213 0H0.491803C0.220328 0 0 0.234575 0 0.524386V26.7437C0 27.0335 0.220328 27.2681 0.491803 27.2681H19.5082C19.7797 27.2681 20 27.0335 20 26.7437V6.98447C20 6.84673 19.9492 6.71424 19.858 6.616ZM14.0984 1.89338L18.3377 6.46778H14.0984V1.89338ZM0.983607 26.2196V1.04912H13.1148V6.99216C13.1148 7.28197 13.3351 7.51655 13.6066 7.51655H19.0164V26.2196H0.983607Z" fill="#1A3D8A"/>
</svg>
