<svg width="20" height="20" viewBox="0 0 20 20" fill="none" xmlns="http://www.w3.org/2000/svg">
<path d="M5 0H1.11111C0.5 0 0 0.5 0 1.11111C0 11.5444 8.45556 20 18.8889 20C19.5 20 20 19.5 20 18.8889V15.0111C20 14.4 19.5 13.9 18.8889 13.9C17.5111 13.9 16.1667 13.6778 14.9222 13.2667C14.8111 13.2222 14.6889 13.2111 14.5778 13.2111C14.2889 13.2111 14.0111 13.3222 13.7889 13.5333L11.3444 15.9778C8.2 14.3667 5.62222 11.8 4.02222 8.65556L6.46667 6.21111C6.77778 5.9 6.86667 5.46667 6.74444 5.07778C6.33333 3.83333 6.11111 2.5 6.11111 1.11111C6.11111 0.5 5.61111 0 5 0Z" fill="#1A3D8A"/>
</svg>
