<svg width="50" height="60" viewBox="0 0 50 60" fill="none" xmlns="http://www.w3.org/2000/svg">
<path d="M0.886285 53.4975C0.441796 54.2656 1.02132 55.2539 1.90206 55.2539C3.52301 55.2448 5.14395 55.2342 6.76489 55.2246L9.09399 59.399C9.30044 59.767 9.68909 59.9963 10.1111 60H10.1194C10.5387 60 10.9269 59.7762 11.1356 59.4131L18.1151 47.3195C18.93 48.3961 19.9284 49.5067 21.4207 49.2842C22.1769 49.1711 22.8434 48.7495 23.4765 48.3476C23.904 48.0757 24.4808 47.5671 25.0169 47.6038C25.5968 47.6431 26.2446 48.2529 26.7229 48.5454C27.3373 48.9212 28.0001 49.2732 28.7344 49.3085C30.109 49.3744 31.0145 48.3197 31.7721 47.3195L38.7516 59.4131C39.2149 60.217 40.4325 60.1694 40.8285 59.3285L42.8161 55.1225L47.9545 55.2553C48.849 55.28 49.4505 54.2747 49.0009 53.4984L42.2022 41.7215C43.3851 41.4734 44.3491 40.8124 44.6439 39.5888C44.8962 38.5437 44.5029 37.456 44.725 36.4297C44.9168 35.5444 46.3606 35.2084 47.055 34.763C48.0277 34.1386 48.6823 33.2359 48.572 32.0283C48.5093 31.3444 48.2246 30.7059 47.965 30.0787C47.803 29.6869 47.4825 29.1495 47.526 28.71C47.607 27.8952 48.8526 27.0735 49.3086 26.4198C49.9279 25.5318 50.1339 24.505 49.667 23.5011C49.1973 22.4917 48.1664 21.9076 47.6597 20.9527C47.261 20.2016 48.0401 19.1382 48.2909 18.4268C48.6709 17.3488 48.74 16.2121 47.9522 15.2957C47.3338 14.577 46.4288 14.2172 45.6171 13.7723C45.2958 13.596 44.8962 13.423 44.757 13.0627C44.6064 12.6732 44.7099 12.1142 44.7277 11.7087C44.7703 10.7268 44.8303 9.66108 44.2535 8.80598C43.7193 8.01405 42.828 7.70368 41.928 7.54163C41.1878 7.40842 39.95 7.53889 39.5083 6.83393C39.0656 6.12852 39.002 5.18278 38.6486 4.42563C38.1638 3.38697 37.3183 2.70444 36.1419 2.66233C35.1746 2.628 34.2774 3.01114 33.3294 3.11002C32.3598 3.21119 31.9144 2.14368 31.3757 1.48633C30.8277 0.817539 30.1722 0.191318 29.286 0.0370519C28.0843 -0.171688 27.0599 0.566685 26.099 1.1691C25.2467 1.70377 24.8992 1.84339 24.0111 1.3078C23.0476 0.72736 22.0748 -0.0673183 20.8805 0.00455068C19.9613 0.0594823 19.2408 0.634892 18.6617 1.30552C18.1541 1.89328 17.6299 3.09583 16.7716 3.13062C15.8565 3.1677 14.9383 2.69437 14.0154 2.66416C11.424 2.57993 11.3018 4.84312 10.4664 6.64121C10.0809 7.47068 9.11093 7.36951 8.30435 7.48762C7.38196 7.6222 6.41745 7.85062 5.79077 8.59769C5.11648 9.40199 5.10778 10.4732 5.14761 11.4656C5.1856 12.4063 5.37146 13.1277 4.48339 13.6537C3.67864 14.1307 2.76815 14.4511 2.09432 15.1259C1.25982 15.9617 1.16827 17.0567 1.50152 18.1471C1.7217 18.8676 2.54843 20.0303 2.31542 20.8031C2.08471 21.568 1.03597 22.2413 0.579583 22.8955C-0.773567 24.835 0.495812 26.3434 1.80364 27.8343C2.04122 28.1044 2.35388 28.4038 2.36212 28.7828C2.37173 29.2049 2.07876 29.7002 1.9222 30.0787C1.51479 31.0638 1.06344 32.1359 1.44933 33.2043C1.81326 34.2018 2.75305 34.7525 3.64523 35.219C4.48523 35.6579 5.17141 35.8498 5.18377 36.8774C5.19613 37.9001 4.98144 38.9575 5.35177 39.9449C5.73858 40.9753 6.64496 41.5036 7.68225 41.7215L0.886285 53.4975ZM33.8947 46.3055C35.3779 46.62 37.0592 47.0421 38.1684 45.6834C38.6124 45.1396 38.8395 44.4562 39.0478 43.7965C39.1805 43.3758 39.3211 42.4104 39.7573 42.176L45.9234 52.8575C44.643 52.8246 43.3622 52.7824 42.0818 52.7591C41.6287 52.7591 41.2144 53.0205 41.0207 53.4306L39.6644 56.3017L33.8947 46.3055ZM18.5985 44.3907C17.4761 43.5676 16.16 43.8757 14.9067 44.1458C14.5798 44.2163 13.9266 44.4539 13.614 44.2758C13.3178 44.1074 13.202 43.4766 13.1049 43.1772C12.774 42.1568 12.5039 41.0394 11.6094 40.3519C10.731 39.6767 9.58563 39.6606 8.53918 39.4917C8.14596 39.4281 7.70285 39.4212 7.52478 39.0417C7.35312 38.6746 7.49273 37.9893 7.50921 37.598C7.55774 36.4462 7.53714 35.2624 6.67929 34.3858C5.91574 33.6053 4.83862 33.349 3.98352 32.7132C3.22363 32.1478 4.14877 30.9045 4.39871 30.2078C4.87158 28.8895 4.74844 27.7537 3.87365 26.6482C3.45022 26.1136 2.09203 25.1541 2.39187 24.4075C2.76861 23.4677 3.89334 22.841 4.37124 21.9223C5.02172 20.673 4.54428 19.4449 4.04714 18.2382C3.91531 17.9178 3.54635 17.3222 3.64981 16.9647C3.7528 16.6067 4.34606 16.3783 4.6427 16.2204C5.54861 15.7384 6.57446 15.2952 7.11233 14.3664C7.71246 13.3305 7.48633 12.1028 7.48037 10.968C7.47763 10.4709 7.42544 10.1417 7.90976 9.95268C8.33502 9.78651 8.85046 9.78239 9.29815 9.72151C10.5002 9.55854 11.6456 9.25504 12.3203 8.1619C12.8536 7.2981 12.8403 6.02872 13.4501 5.24412C13.9207 4.63849 15.4093 5.30683 16.0543 5.40479C17.374 5.60529 18.4159 5.25007 19.3072 4.26221C19.7466 3.77469 20.458 2.30848 21.184 2.3776C21.5978 2.41697 22.0785 2.85962 22.42 3.07615C22.8956 3.37781 23.3767 3.68406 23.9104 3.87449C25.1762 4.32538 26.2922 3.82047 27.3615 3.14435C27.7145 2.92142 28.2734 2.41697 28.7037 2.37714C29.0887 2.34144 29.2896 2.64859 29.5299 2.93607C30.2084 3.74952 30.7705 4.74515 31.7689 5.21253C32.9485 5.76505 34.2106 5.29722 35.4072 5.08069C35.8155 5.00699 36.1662 4.89759 36.4367 5.24412C36.6967 5.57645 36.7786 6.13035 36.9041 6.52906C37.2451 7.61488 37.6502 8.68787 38.7228 9.23994C39.7486 9.76728 40.9612 9.5059 41.9779 9.9513C42.7639 10.296 42.3478 11.759 42.3574 12.4827C42.3734 13.6876 42.7502 14.6699 43.7531 15.3818C44.2201 15.7132 44.741 15.9526 45.2445 16.2204C45.5219 16.3678 46.1193 16.5907 46.2319 16.9121C46.35 17.249 46.0026 17.845 45.8762 18.1521C45.6373 18.7335 45.3668 19.313 45.2477 19.9342C44.9886 21.2865 45.641 22.2821 46.5148 23.2416C46.827 23.5849 47.3223 23.9726 47.4967 24.4075C47.6515 24.7943 47.4413 25.0136 47.1914 25.3226C46.4777 26.2038 45.5109 26.949 45.2445 28.1071C44.9529 29.377 45.6721 30.5168 46.0758 31.6685C46.2251 32.0952 46.3381 32.3414 45.9861 32.6541C45.6236 32.9764 45.0893 33.1695 44.6641 33.3948C43.6836 33.9143 42.7808 34.5428 42.4851 35.6731C42.3208 36.2997 42.3515 36.958 42.378 37.5984C42.3954 38.0163 42.5094 38.5638 42.3785 38.968C42.1761 39.592 40.7241 39.6588 40.1373 39.6588C38.7772 39.8762 37.793 40.497 37.2488 41.7892C36.9732 42.4425 36.8153 44.1998 36.0206 44.3129C35.5802 44.3756 35.0066 44.1486 34.5741 44.0543C33.9822 43.9256 33.3752 43.8011 32.7663 43.8492C31.3729 43.9595 30.597 45.0078 29.8078 46.0277C29.562 46.3449 29.2178 46.951 28.7746 46.962C28.3965 46.9716 27.871 46.4964 27.5735 46.3078C26.43 45.5846 25.2782 44.9597 23.91 45.4417C23.2787 45.6638 22.7257 46.0487 22.165 46.4035C21.8871 46.5788 21.3644 47.0261 21.0073 46.9702C20.593 46.9048 20.1893 46.1682 19.9595 45.8684C19.5498 45.3342 19.1428 44.7981 18.5985 44.3907C18.3733 44.2255 18.6173 44.4049 18.5985 44.3907ZM3.94049 52.8973L10.129 42.1747C10.2851 42.2781 10.3519 42.4319 10.4339 42.5976C10.8092 43.3585 10.9086 44.2309 11.2899 44.994C12.2809 46.9762 14.1445 46.6974 15.9925 46.3055L10.1368 56.4514L8.47784 53.4773C8.27002 53.1056 7.87726 52.8763 7.45245 52.8763H7.44513L3.94049 52.8973Z" fill="#1A3D8A"/>
<path d="M9.44708 24.6576C9.44708 16.1112 16.3987 9.1582 24.9438 9.1582C33.4888 9.1582 40.4409 16.1112 40.4409 24.6576C40.4409 33.2041 33.4888 40.1575 24.9438 40.1575C16.3987 40.1575 9.44708 33.2041 9.44708 24.6576ZM11.7936 24.6576C11.7936 31.9118 17.6928 37.8138 24.9438 37.8138C32.1947 37.8138 38.0939 31.9118 38.0939 24.6576C38.0939 17.4034 32.1947 11.502 24.9438 11.502C17.6928 11.502 11.7936 17.4034 11.7936 24.6576Z" fill="#1A3D8A"/>
<path d="M29.7549 29.273H28.1056V16.6513C28.1056 16.1285 27.6802 15.7031 27.1574 15.7031H24.6762C24.4536 15.7031 24.237 15.7819 24.0667 15.925L19.5588 19.708C19.1654 20.0381 19.105 20.6136 19.4212 21.0181L20.8997 22.9102C21.0564 23.1108 21.2915 23.2416 21.5446 23.269C21.7979 23.2965 22.0553 23.2191 22.2514 23.0567L23.2786 22.2062V29.2729H21.1963V29.273C20.6734 29.273 20.2481 29.6985 20.2481 30.2212V32.4714C20.2481 32.9943 20.6734 33.4196 21.1963 33.4196H29.7549C30.2778 33.4196 30.7031 32.9942 30.7031 32.4714V30.2212C30.7031 29.6984 30.2778 29.273 29.7549 29.273ZM29.2316 31.9482H21.7198V30.7448H23.8022C24.325 30.7448 24.7504 30.3194 24.7504 29.7966V21.0934C24.7503 20.7221 24.5417 20.3933 24.2057 20.2354C23.8697 20.0773 23.4835 20.1261 23.1974 20.363L21.7277 21.5799L20.892 20.5105L24.8667 17.1749H26.634V29.7966C26.634 30.3194 27.0594 30.7448 27.5822 30.7448H29.2316V31.9482Z" fill="#00BF96"/>
</svg>
