<svg width="49" height="60" viewBox="0 0 49 60" fill="none" xmlns="http://www.w3.org/2000/svg">
<path d="M46.1441 6.09512L26.6145 0.335478C25.0984 -0.111826 23.4949 -0.111826 21.9783 0.335478L2.44886 6.095C1.00699 6.52016 0 7.86687 0 9.37015V25.5436C0 33.0286 2.22808 40.236 6.44343 46.3866C10.5588 52.3916 16.2861 57.0114 23.0055 59.7459C23.4218 59.9153 23.8591 60 24.2964 60C24.7338 60 25.1711 59.9152 25.5873 59.7459C32.3067 57.0114 38.034 52.3919 42.1493 46.3866C46.3646 40.2359 48.5927 33.0286 48.5927 25.5436V9.37027C48.5929 7.86699 47.5859 6.52016 46.1441 6.09512ZM45.8613 25.5435C45.8613 32.4748 43.7985 39.1482 39.8963 44.8421C36.0842 50.4045 30.7803 54.6832 24.5578 57.2155C24.3893 57.2841 24.2038 57.2841 24.0352 57.2155C17.8127 54.6832 12.5087 50.4046 8.69671 44.8421C4.79449 39.1482 2.73175 32.4749 2.73175 25.5435V9.37015C2.73175 9.06957 2.9332 8.80027 3.2216 8.71519L22.7511 2.95555C23.2566 2.80637 23.7766 2.73196 24.2966 2.73196C24.8164 2.73196 25.3364 2.80649 25.8419 2.95567L45.3717 8.71519C45.6598 8.80015 45.8613 9.06945 45.8613 9.37015V25.5435Z" fill="#1A3D8A"/>
<path d="M20.2654 34.8741C20.8222 35.4339 21.5629 35.7422 22.3504 35.7422C23.138 35.7422 23.8783 35.4339 24.4355 34.8741L32.2996 26.9723C33.452 25.8145 33.4524 23.9405 32.2996 22.7827C31.1473 21.6248 29.2822 21.6244 28.1295 22.7823L22.3504 28.5893L20.5034 26.7335C19.3515 25.5756 17.486 25.5753 16.3333 26.7335C15.1806 27.8914 15.1806 29.7653 16.3333 30.9236L20.2654 34.8741ZM17.7233 28.1302C18.1077 27.7444 18.729 27.7444 19.113 28.1302L21.655 30.6844C22.039 31.0698 22.6615 31.0698 23.0455 30.6844L29.5195 24.1793C29.9039 23.7935 30.5248 23.7935 30.9096 24.1793C31.2936 24.5652 31.2936 25.1894 30.9092 25.5756L23.0451 33.4774C22.8592 33.6641 22.6127 33.7671 22.3504 33.7671C22.0882 33.7671 21.8413 33.6641 21.6554 33.4774L17.7233 29.5265C17.3394 29.1407 17.339 28.5164 17.7233 28.1302Z" fill="#00BF96"/>
<path d="M39.4313 12.1352L24.876 7.84264C24.497 7.73096 24.0964 7.73072 23.7172 7.84264L9.16219 12.1352C8.29711 12.3904 7.69278 13.1986 7.69278 14.1004V25.5434C7.69278 31.5901 9.52184 37.3897 12.9819 42.3155C15.6646 46.135 19.2492 49.2884 23.3481 51.435C23.645 51.5907 23.9708 51.6684 24.2967 51.6684C24.6225 51.6684 24.9483 51.5907 25.2453 51.435C29.3441 49.2885 32.9287 46.1349 35.6115 42.3155C39.0716 37.3898 40.9006 31.5901 40.9006 25.5434V14.1004C40.9005 13.1983 40.2963 12.3903 39.4313 12.1352ZM38.169 25.5434C38.169 31.0251 36.5117 36.2819 33.3764 40.7453C31.0125 44.1106 27.8789 46.9049 24.2967 48.8453C20.7145 46.9048 17.5808 44.1106 15.217 40.7453C12.0817 36.2819 10.4244 31.0251 10.4244 25.5434V14.611L24.2967 10.5198L38.169 14.611V25.5434Z" fill="#1A3D8A"/>
</svg>
